<?xml version="1.0" encoding="UTF-8" standalone="no"?>
<!-- Created with Inkscape (http://www.inkscape.org/) -->

<svg
   width="44.320911mm"
   height="32.604729mm"
   viewBox="0 0 44.320911 32.604729"
   version="1.1"
   id="svg1"
   inkscape:version="1.4.3 (0d15f75, 2025-12-25)"
   sodipodi:docname="history.svg"
   xmlns:inkscape="http://www.inkscape.org/namespaces/inkscape"
   xmlns:sodipodi="http://sodipodi.sourceforge.net/DTD/sodipodi-0.dtd"
   xmlns="http://www.w3.org/2000/svg"
   xmlns:svg="http://www.w3.org/2000/svg">
  <sodipodi:namedview
     id="namedview1"
     pagecolor="#ffffff"
     bordercolor="#000000"
     borderopacity="0.25"
     inkscape:showpageshadow="2"
     inkscape:pageopacity="0.0"
     inkscape:pagecheckerboard="0"
     inkscape:deskcolor="#d1d1d1"
     inkscape:document-units="mm"
     inkscape:zoom="0.76167929"
     inkscape:cx="237.63282"
     inkscape:cy="486.4252"
     inkscape:window-width="1920"
     inkscape:window-height="1057"
     inkscape:window-x="-8"
     inkscape:window-y="-8"
     inkscape:window-maximized="1"
     inkscape:current-layer="layer1" />
  <defs
     id="defs1" />
  <g
     inkscape:label="Layer 1"
     inkscape:groupmode="layer"
     id="layer1"
     transform="translate(-42.068745,-19.843746)">
    <path
       fill-rule="evenodd"
       fill="#504f50"
       fill-opacity="1"
       d="M 86.194206,20.579618 C 86.0671,20.309867 85.804581,19.877853 85.159659,19.843746 H 64.799125 c -0.240797,0.01344 -0.425794,0.08165 -0.568431,0.174667 -0.147796,-0.09509 -0.333825,-0.161232 -0.571553,-0.174667 H 43.29657 c -0.648017,0.03411 -0.902256,0.466121 -1.034547,0.735872 -0.137478,0.298691 -0.190183,0.615984 -0.193278,0.96325 l 0.0031,29.206486 c 0,0.347266 0.0527,0.664559 0.190183,0.963247 0.132291,0.269751 0.38653,0.701768 1.034547,0.735873 h 20.362571 c 0.237728,-0.01344 0.423757,-0.08165 0.571553,-0.174665 0.142637,0.09302 0.327634,0.161229 0.568431,0.174665 h 20.362598 c 0.642858,-0.0341 0.905377,-0.466122 1.032483,-0.735873 0.137478,-0.301789 0.192246,-0.615981 0.192246,-0.963247 h 0.0032 V 21.542868 c -0.0032,-0.347266 -0.05786,-0.664559 -0.195341,-0.96325 z M 63.238507,50.749354 v 0.05581 H 43.712045 V 21.487057 h 19.526462 z m 21.505677,0 v 0.05581 H 65.217722 V 21.487057 h 19.526462 v 29.262297"
       id="path63"
       style="stroke-width:0.264583" />
    <path
       fill-rule="evenodd"
       fill="#504f50"
       fill-opacity="1"
       d="m 70.382257,29.167207 -0.274929,-0.271817 0.274929,-0.272851 h 9.197366 l 0.276992,0.272851 -0.276992,0.271817 h -9.197366"
       id="path64"
       style="stroke-width:0.264583" />
    <path
       fill-rule="evenodd"
       fill="#504f50"
       fill-opacity="1"
       d="m 70.382257,31.236333 -0.274929,-0.27492 0.274929,-0.272852 h 9.197366 l 0.276992,0.272852 -0.276992,0.27492 h -9.197366"
       id="path65"
       style="stroke-width:0.264583" />
    <path
       fill-rule="evenodd"
       fill="#504f50"
       fill-opacity="1"
       d="m 70.382257,34.650078 -0.274929,-0.272852 0.274929,-0.274918 h 9.197366 l 0.276992,0.274918 -0.276992,0.272852 h -9.197366"
       id="path66"
       style="stroke-width:0.264583" />
    <path
       fill-rule="evenodd"
       fill="#504f50"
       fill-opacity="1"
       d="m 70.382257,36.719201 -0.274929,-0.275952 0.274929,-0.271817 h 9.197366 l 0.276992,0.271817 -0.276992,0.275952 h -9.197366"
       id="path67"
       style="stroke-width:0.264583" />
    <path
       fill-rule="evenodd"
       fill="#504f50"
       fill-opacity="1"
       d="m 70.382257,39.396041 -0.274929,-0.274918 0.274929,-0.274918 h 9.197366 l 0.276992,0.274918 -0.276992,0.274918 h -9.197366"
       id="path68"
       style="stroke-width:0.264583" />
    <path
       fill-rule="evenodd"
       fill="#504f50"
       fill-opacity="1"
       d="m 70.382257,41.463098 -0.274929,-0.274918 0.274929,-0.272851 h 9.197366 l 0.276992,0.272851 -0.276992,0.274918 h -9.197366"
       id="path69"
       style="stroke-width:0.264583" />
    <path
       fill-rule="evenodd"
       fill="#504f50"
       fill-opacity="1"
       d="m 48.450786,29.167207 -0.274929,-0.271817 0.274929,-0.272851 h 9.19943 l 0.272864,0.272851 -0.272864,0.271817 h -9.19943"
       id="path70"
       style="stroke-width:0.264583" />
    <path
       fill-rule="evenodd"
       fill="#504f50"
       fill-opacity="1"
       d="m 48.450786,31.236333 -0.274929,-0.27492 0.274929,-0.272852 h 9.19943 l 0.272864,0.272852 -0.272864,0.27492 h -9.19943"
       id="path71"
       style="stroke-width:0.264583" />
    <path
       fill-rule="evenodd"
       fill="#504f50"
       fill-opacity="1"
       d="m 48.450786,34.650078 -0.274929,-0.272852 0.274929,-0.274918 h 9.19943 l 0.272864,0.274918 -0.272864,0.272852 h -9.19943"
       id="path72"
       style="stroke-width:0.264583" />
    <path
       fill-rule="evenodd"
       fill="#504f50"
       fill-opacity="1"
       d="m 48.450786,36.719201 -0.274929,-0.275952 0.274929,-0.271817 h 9.19943 l 0.272864,0.271817 -0.272864,0.275952 h -9.19943"
       id="path73"
       style="stroke-width:0.264583" />
    <path
       fill-rule="evenodd"
       fill="#504f50"
       fill-opacity="1"
       d="m 48.450786,39.396041 -0.274929,-0.274918 0.274929,-0.274918 h 9.19943 l 0.272864,0.274918 -0.272864,0.274918 h -9.19943"
       id="path74"
       style="stroke-width:0.264583" />
    <path
       fill-rule="evenodd"
       fill="#504f50"
       fill-opacity="1"
       d="m 48.450786,41.463098 -0.274929,-0.274918 0.274929,-0.272851 h 9.19943 l 0.272864,0.272851 -0.272864,0.274918 h -9.19943"
       id="path75"
       style="stroke-width:0.264583" />
  </g>
</svg>
