<?xml version="1.0" encoding="UTF-8" standalone="no"?>
<!-- Created with Inkscape (http://www.inkscape.org/) -->

<svg
   width="43.058987mm"
   height="26.431526mm"
   viewBox="0 0 43.058987 26.431526"
   version="1.1"
   id="svg1"
   inkscape:version="1.4.3 (0d15f75, 2025-12-25)"
   sodipodi:docname="prefrences.svg"
   xmlns:inkscape="http://www.inkscape.org/namespaces/inkscape"
   xmlns:sodipodi="http://sodipodi.sourceforge.net/DTD/sodipodi-0.dtd"
   xmlns="http://www.w3.org/2000/svg"
   xmlns:svg="http://www.w3.org/2000/svg">
  <sodipodi:namedview
     id="namedview1"
     pagecolor="#ffffff"
     bordercolor="#000000"
     borderopacity="0.25"
     inkscape:showpageshadow="2"
     inkscape:pageopacity="0.0"
     inkscape:pagecheckerboard="0"
     inkscape:deskcolor="#d1d1d1"
     inkscape:document-units="mm"
     inkscape:zoom="0.76167929"
     inkscape:cx="191.68172"
     inkscape:cy="289.49192"
     inkscape:window-width="1920"
     inkscape:window-height="1057"
     inkscape:window-x="-8"
     inkscape:window-y="-8"
     inkscape:window-maximized="1"
     inkscape:current-layer="layer1" />
  <defs
     id="defs1" />
  <g
     inkscape:label="Layer 1"
     inkscape:groupmode="layer"
     id="layer1"
     transform="translate(-54.239568,-71.966664)">
    <path
       fill-rule="evenodd"
       fill="#ffcc00"
       fill-opacity="1"
       d="m 95.326877,86.277843 c -0.335915,-0.312126 -0.254265,-1.158587 -0.142637,-1.396296 0.111628,-0.235646 0.563272,-0.344168 1.007692,-0.243914 0.447517,0.103354 0.926042,-0.312127 1.066589,-0.926042 0.142636,-0.613915 -0.108506,-1.198893 -0.552927,-1.299147 -0.447516,-0.103351 -0.798909,-0.873331 -0.822695,-1.134813 -0.02381,-0.264584 0.314193,-0.584978 0.753454,-0.719336 0.437171,-0.135393 0.645954,-0.735873 0.457861,-1.336352 -0.181901,-0.603581 -0.690403,-0.984954 -1.129665,-0.849562 -0.439234,0.132292 -1.126543,-0.354499 -1.277434,-0.571539 -0.150892,-0.217043 -0.01852,-0.666626 0.290433,-1.000456 0.312102,-0.335897 0.191188,-0.960149 -0.269769,-1.385962 -0.457835,-0.428916 -1.092439,-0.505396 -1.402504,-0.171566 -0.312102,0.335896 -0.751364,0.499195 -0.978746,0.364834 -0.224261,-0.13539 -0.761709,-0.78858 -0.661459,-1.232998 0.100251,-0.444418 -0.317288,-0.926042 -0.931201,-1.066602 -0.610817,-0.139528 -1.195784,0.11162 -1.296035,0.556038 -0.103372,0.446484 -0.876432,0.798917 -1.135856,0.82269 -0.261488,0.02376 -0.583935,-0.315227 -0.719349,-0.754478 -0.134356,-0.436147 -0.735859,-0.642853 -1.336331,-0.45992 -0.600499,0.188103 -0.980837,0.6935 -0.846482,1.132748 0.132292,0.43615 -0.356552,1.124479 -0.571526,1.277442 -0.217038,0.150895 -0.666644,0.0186 -1.002533,-0.293523 -0.333825,-0.310057 -0.958082,-0.188103 -1.386999,0.272852 -0.427884,0.45992 -0.502285,1.09244 -0.171555,1.404567 0.335888,0.306956 0.251142,1.158584 0.145732,1.39733 -0.111628,0.234609 -0.569489,0.343131 -1.010788,0.240811 -0.447516,-0.103352 -0.929163,0.314193 -1.068678,0.926042 -0.137451,0.613915 0.110596,1.197861 0.558112,1.301212 0.444421,0.103355 0.798909,0.873332 0.819573,1.134814 0.02487,0.262517 -0.314192,0.584978 -0.753427,0.720371 -0.437198,0.132291 -0.642858,0.734838 -0.457862,1.335317 0.184997,0.601515 0.6935,0.984954 1.129639,0.847495 0.437197,-0.135392 1.127601,0.354499 1.280557,0.571542 0.150892,0.217041 0.01852,0.666626 -0.293529,1.002523 -0.312129,0.332795 -0.188092,0.960146 0.272865,1.385961 0.457835,0.428914 1.089316,0.503328 1.401445,0.169497 0.310065,-0.335896 1.159616,-0.251145 1.39528,-0.142626 0.237702,0.110588 0.346234,0.566375 0.242861,1.01286 -0.09819,0.444415 0.317315,0.923972 0.929164,1.064532 0.61079,0.139528 1.195784,-0.11162 1.29913,-0.556038 0.102315,-0.444418 0.872305,-0.798917 1.134825,-0.820621 0.261487,-0.02376 0.587031,0.315228 0.719322,0.751375 0.135388,0.437184 0.73795,0.642855 1.339454,0.460954 0.600498,-0.185002 0.980836,-0.695566 0.846455,-1.129646 -0.135388,-0.437182 0.356578,-1.12758 0.571552,-1.278475 0.217038,-0.152964 0.663523,-0.02066 0.999411,0.291454 0.336947,0.312127 0.958083,0.19017 1.389063,-0.26975 0.428916,-0.460955 0.503343,-1.093473 0.169518,-1.405599 z m -9.918779,-0.856795 c -2.016416,-1.873787 -2.133203,-5.025017 -0.259424,-7.043499 1.872747,-2.016414 5.027083,-2.130103 7.040404,-0.256315 2.016416,1.872755 2.132171,5.027083 0.259423,7.043499 -1.870709,2.015381 -5.027083,2.129067 -7.040403,0.256315"
       id="path198"
       style="stroke-width:0.264583" />
    <path
       fill-rule="evenodd"
       fill="#ffcc00"
       fill-opacity="1"
       d="m 77.60289,92.191693 c -0.518848,-0.484725 -0.389652,-1.80454 -0.217038,-2.172478 0.169492,-0.367935 0.8754,-0.537435 1.5689,-0.378269 0.690377,0.159162 1.436581,-0.489895 1.656741,-1.441773 0.216006,-0.954982 -0.174678,-1.862418 -0.862991,-2.021583 -0.695563,-0.159163 -1.243357,-1.360123 -1.278493,-1.764234 -0.03617,-0.408242 0.489902,-0.910537 1.173056,-1.119309 0.676963,-0.209807 1.002533,-1.143085 0.711068,-2.077395 -0.285247,-0.93431 -1.076934,-1.526521 -1.756992,-1.317749 -0.680059,0.206705 -1.748737,-0.552937 -1.984375,-0.885733 -0.237702,-0.338997 -0.0341,-1.040765 0.450612,-1.558562 0.483685,-0.52193 0.295592,-1.490348 -0.420635,-2.15904 -0.712099,-0.664559 -1.693968,-0.780314 -2.177653,-0.259416 -0.48678,0.518832 -1.169961,0.772046 -1.521354,0.566373 -0.354489,-0.211873 -1.188561,-1.225765 -1.032484,-1.91823 0.161211,-0.693496 -0.491966,-1.439703 -1.444889,-1.656746 -0.949801,-0.219107 -1.859307,0.172601 -2.01848,0.862996 -0.156051,0.692465 -1.357021,1.240235 -1.764215,1.280544 -0.405157,0.031 -0.907442,-0.491961 -1.11932,-1.172022 -0.206719,-0.683162 -1.143079,-1.003557 -2.074307,-0.71727 -0.934296,0.288357 -1.529609,1.079006 -1.320826,1.759067 0.211852,0.677995 -0.549857,1.75183 -0.885746,1.984375 -0.335888,0.235643 -1.037669,0.03204 -1.558554,-0.451652 -0.520912,-0.481624 -1.489313,-0.294555 -2.153894,0.422712 -0.666618,0.714168 -0.783405,1.696021 -0.264583,2.180746 0.520911,0.481623 0.38862,1.80454 0.22016,2.171443 -0.172615,0.365871 -0.878496,0.537435 -1.569932,0.378272 -0.695563,-0.158131 -1.436608,0.489892 -1.65571,1.442807 -0.220159,0.949812 0.171556,1.859318 0.859896,2.01848 0.695563,0.161232 1.24333,1.362192 1.280531,1.767335 0.0372,0.405143 -0.491967,0.91054 -1.172025,1.116211 -0.680059,0.209806 -1.002506,1.143082 -0.714164,2.077392 0.285248,0.931209 1.078998,1.526521 1.755961,1.317749 0.677994,-0.208772 1.751832,0.552937 1.98747,0.888836 0.235665,0.335896 0.03204,1.036627 -0.452675,1.555459 -0.483685,0.523999 -0.293529,1.492417 0.420661,2.159042 0.715195,0.661459 1.696005,0.780315 2.180722,0.259416 0.486807,-0.518832 1.804564,-0.388607 2.172494,-0.217043 0.366897,0.1695 0.536389,0.876433 0.378274,1.568897 -0.156077,0.6935 0.49194,1.439707 1.441768,1.656747 0.951865,0.21704 1.859306,-0.172598 2.021575,-0.865063 0.156078,-0.693497 1.359086,-1.238168 1.764242,-1.275374 0.40513,-0.03514 0.907441,0.491959 1.119293,1.17202 0.208783,0.676963 1.146202,1.002525 2.077403,0.714168 0.933291,-0.288353 1.526513,-1.076936 1.317757,-1.756997 -0.209815,-0.680061 0.549831,-1.751833 0.885719,-1.986441 0.339011,-0.23358 1.039733,-0.03204 1.561677,0.454752 0.517789,0.481624 1.489313,0.291455 2.152835,-0.423748 0.666618,-0.714169 0.783405,-1.696019 0.26252,-2.179712 z M 62.182629,90.858442 c -3.134677,-2.913518 -3.315546,-7.816578 -0.402034,-10.949202 2.913512,-3.134693 7.815553,-3.312459 10.951263,-0.398944 3.13264,2.910417 3.312477,7.813476 0.398938,10.94817 -2.91248,3.132624 -7.815527,3.310392 -10.948167,0.399976"
       id="path199"
       style="stroke-width:0.264583" />
    <path
       fill-rule="evenodd"
       fill="#ffcc00"
       fill-opacity="1"
       d="m 71.321099,89.048734 c -2.135267,2.13527 -5.598636,2.13527 -7.730807,0.0021 -2.132145,-2.137339 -2.132145,-5.598626 0,-7.730794 2.135293,-2.13527 5.59554,-2.13527 7.730807,0 2.133203,2.132168 2.133203,5.593455 0,7.728727"
       id="path200"
       style="stroke-width:0.264583" />
  </g>
</svg>
